<?xml version="1.0" encoding="UTF-8" standalone="no"?>
<!-- Created with Inkscape (http://www.inkscape.org/) -->

<svg
   width="600"
   height="255"
   viewBox="0 0 158.75 67.469175"
   version="1.1"
   id="svg1"
   xml:space="preserve"
   inkscape:version="1.3.1 (91b66b0783, 2023-11-16)"
   sodipodi:docname="Banner_600_255.svg"
   inkscape:export-filename="Banner.png"
   inkscape:export-xdpi="96"
   inkscape:export-ydpi="96"
   xmlns:inkscape="http://www.inkscape.org/namespaces/inkscape"
   xmlns:sodipodi="http://sodipodi.sourceforge.net/DTD/sodipodi-0.dtd"
   xmlns="http://www.w3.org/2000/svg"
   xmlns:svg="http://www.w3.org/2000/svg"><sodipodi:namedview
     id="namedview1"
     pagecolor="#ffffff"
     bordercolor="#000000"
     borderopacity="0.25"
     inkscape:showpageshadow="2"
     inkscape:pageopacity="0.0"
     inkscape:pagecheckerboard="0"
     inkscape:deskcolor="#d1d1d1"
     inkscape:document-units="mm"
     inkscape:zoom="0.7313903"
     inkscape:cx="276.86996"
     inkscape:cy="25.294292"
     inkscape:window-width="1920"
     inkscape:window-height="1017"
     inkscape:window-x="-8"
     inkscape:window-y="-8"
     inkscape:window-maximized="1"
     inkscape:current-layer="layer1" /><defs
     id="defs1" /><g
     inkscape:label="Layer 1"
     inkscape:groupmode="layer"
     id="layer1"><path
       id="path1"
       style="fill:#16429b;fill-opacity:1;stroke-width:0.343566;stroke-linecap:round;paint-order:stroke fill markers"
       d="m 24.39515,19.242952 a 0.17152285,0.20451854 0 0 1 0.0018,0.0042 0.17152285,0.20451854 0 0 1 0.0011,9.63e-4 l 10.253173,24.522256 a 14.493389,14.493389 0 0 0 4.0866,-10.037704 14.493389,14.493389 0 0 0 -14.342528,-14.489685 z m -0.305159,0.0073 a 14.493389,14.493389 0 0 0 -14.3390554,14.482372 14.493389,14.493389 0 0 0 4.0993674,10.050567 0.17152285,0.20451854 0 0 1 0.0028,-0.04737 0.17152285,0.20451854 0 0 1 0.0048,-0.08167 0.17152285,0.20451854 0 0 1 2.26e-4,-0.0037 z m 0.153965,0.546763 -3.380109,8.060965 h 6.750703 z m -3.048396,8.470022 3.06331,2.316993 3.044985,-2.316993 z m -0.536317,0.0789 -3.064937,7.309253 6.345201,-4.828212 z m 7.164025,0.01121 -3.244538,2.468754 6.255005,4.731135 z m -3.563904,2.711772 -6.690199,5.090619 6.603915,2.876532 6.7049,-2.961255 z m 6.917879,5.309639 -6.507258,2.873973 9.425619,4.105619 z m -13.920055,0.08054 -2.898124,6.911416 9.317608,-4.115205 z m 6.91646,3.012672 -10.102764,4.461978 a 0.17152285,0.20451854 0 0 1 -0.0028,-1.38e-4 0.17152285,0.20451854 0 0 1 -0.06477,-0.0028 0.17152285,0.20451854 0 0 1 -0.0058,-1.83e-4 14.493389,14.493389 0 0 0 10.246788,4.295584 14.493389,14.493389 0 0 0 10.137424,-4.186225 0.17152285,0.20451854 0 0 1 -0.0021,-0.0021 l -0.06148,-0.147129 z" /><text
       xml:space="preserve"
       style="font-weight:800;font-size:9.87807px;font-family:Geologica;-inkscape-font-specification:'Geologica Ultra-Bold';fill:#16429b;fill-opacity:1;stroke:none;stroke-width:1.98443;stroke-linecap:round;stroke-linejoin:round;paint-order:stroke fill markers"
       x="40.460052"
       y="37.191914"
       id="text1"><tspan
         sodipodi:role="line"
         id="tspan1"
         style="fill:#16429b;fill-opacity:1;stroke:none;stroke-width:1.98443"
         x="40.460052"
         y="37.191914">МЕТАЛЛОПОРЫ.ЕКБ</tspan></text><text
       xml:space="preserve"
       style="font-weight:800;font-size:3.79417px;font-family:Geologica;-inkscape-font-specification:'Geologica Ultra-Bold';fill:#16429b;fill-opacity:1;stroke:none;stroke-width:0.76222;stroke-linecap:round;stroke-linejoin:round;paint-order:stroke fill markers"
       x="41.235874"
       y="29.332315"
       id="text1-2"><tspan
         sodipodi:role="line"
         id="tspan1-2"
         style="fill:#16429b;fill-opacity:1;stroke:none;stroke-width:0.76222"
         x="41.235874"
         y="29.332315">1C: Предриятие 8.3</tspan></text><text
       xml:space="preserve"
       style="font-weight:800;font-size:2.70862px;font-family:Geologica;-inkscape-font-specification:'Geologica Ultra-Bold';fill:#16429b;fill-opacity:1;stroke:none;stroke-width:0.544141;stroke-linecap:round;stroke-linejoin:round;paint-order:stroke fill markers"
       x="41.030018"
       y="39.925465"
       id="text1-7"><tspan
         sodipodi:role="line"
         id="tspan1-8"
         style="fill:#16429b;fill-opacity:1;stroke:none;stroke-width:0.544141"
         x="41.030018"
         y="39.925465">КРУПНЕЙШИЙ ПОСТАВЩИК СТАЛЬНЫХ МНОГОГРАННЫХ ОПОР В РОССИИ</tspan></text></g></svg>
