<?xml version="1.0" encoding="UTF-8" standalone="no"?>
<!-- Created with Inkscape (http://www.inkscape.org/) -->

<svg
   width="1080"
   height="1080"
   viewBox="0 0 285.74999 285.75"
   version="1.1"
   id="svg1"
   inkscape:version="1.3.1 (91b66b0783, 2023-11-16)"
   sodipodi:docname="METALLOPORY.svg"
   xmlns:inkscape="http://www.inkscape.org/namespaces/inkscape"
   xmlns:sodipodi="http://sodipodi.sourceforge.net/DTD/sodipodi-0.dtd"
   xmlns="http://www.w3.org/2000/svg"
   xmlns:svg="http://www.w3.org/2000/svg">
  <sodipodi:namedview
     id="namedview1"
     pagecolor="#ffffff"
     bordercolor="#000000"
     borderopacity="0.25"
     inkscape:showpageshadow="2"
     inkscape:pageopacity="0.0"
     inkscape:pagecheckerboard="0"
     inkscape:deskcolor="#d1d1d1"
     inkscape:document-units="mm"
     showguides="true"
     inkscape:zoom="0.55259086"
     inkscape:cx="306.73689"
     inkscape:cy="500.37021"
     inkscape:window-width="1920"
     inkscape:window-height="1017"
     inkscape:window-x="-8"
     inkscape:window-y="-8"
     inkscape:window-maximized="1"
     inkscape:current-layer="layer1" />
  <defs
     id="defs1" />
  <g
     inkscape:label="Layer 1"
     inkscape:groupmode="layer"
     id="layer1">
    <path
       id="path1"
       style="fill:#0f156a;stroke-width:2.5;stroke-linecap:round;paint-order:stroke fill markers;fill-opacity:1"
       d="M 143.97261 37.438542 A 1.248113 1.4882112 0 0 1 143.98604 37.469031 A 1.248113 1.4882112 0 0 1 143.99276 37.475749 L 218.60216 215.91602 A 105.46342 105.46342 0 0 0 248.33833 142.875 A 105.46342 105.46342 0 0 0 143.97261 37.438542 z M 141.75207 37.491768 A 105.46342 105.46342 0 0 0 37.41167 142.875 A 105.46342 105.46342 0 0 0 67.241374 216.00955 A 1.248113 1.4882112 0 0 1 67.261528 215.66487 A 1.248113 1.4882112 0 0 1 67.296667 215.07059 A 1.248113 1.4882112 0 0 1 67.298218 215.04527 L 141.75207 37.491768 z M 142.87242 41.470337 L 118.2765 100.12722 L 167.39908 100.12722 L 142.87242 41.470337 z M 120.69031 103.10378 L 142.98094 119.96374 L 165.13824 103.10378 L 120.69031 103.10378 z M 116.7877 103.67791 L 94.485189 156.86484 L 140.65705 121.73159 L 116.7877 103.67791 z M 168.91785 103.75956 L 145.30844 121.72384 L 190.82401 156.15068 L 168.91785 103.75956 z M 142.98455 123.4922 L 94.302254 160.5349 L 142.35669 181.46644 L 191.14596 159.9184 L 142.98455 123.4922 z M 193.3236 162.12861 L 145.97249 183.04154 L 214.55951 212.91672 L 193.3236 162.12861 z M 92.032109 162.71462 L 70.943473 213.00664 L 138.7445 183.06169 L 92.032109 162.71462 z M 142.36082 184.63679 L 68.846444 217.10509 A 1.248113 1.4882112 0 0 1 68.82629 217.10406 A 1.248113 1.4882112 0 0 1 68.355001 217.08287 A 1.248113 1.4882112 0 0 1 68.312626 217.08081 A 105.46342 105.46342 0 0 0 142.875 248.33833 A 105.46342 105.46342 0 0 0 216.64156 217.87662 A 1.248113 1.4882112 0 0 1 216.62709 217.86112 L 216.17957 216.79038 L 142.36082 184.63679 z " />
  </g>
</svg>
