<?xml version="1.0" encoding="UTF-8" standalone="no"?>
<!-- Created with Inkscape (http://www.inkscape.org/) -->

<svg
   width="512"
   height="512"
   viewBox="0 0 512 512"
   version="1.1"
   id="svg1"
   inkscape:version="1.3.1 (91b66b0783, 2023-11-16)"
   sodipodi:docname="Home Page.svg"
   xmlns:inkscape="http://www.inkscape.org/namespaces/inkscape"
   xmlns:sodipodi="http://sodipodi.sourceforge.net/DTD/sodipodi-0.dtd"
   xmlns="http://www.w3.org/2000/svg"
   xmlns:svg="http://www.w3.org/2000/svg">
  <sodipodi:namedview
     id="namedview1"
     pagecolor="#ffffff"
     bordercolor="#000000"
     borderopacity="0.25"
     inkscape:showpageshadow="2"
     inkscape:pageopacity="0.0"
     inkscape:pagecheckerboard="0"
     inkscape:deskcolor="#d1d1d1"
     inkscape:document-units="px"
     showguides="true"
     inkscape:zoom="0.56692839"
     inkscape:cx="-235.47948"
     inkscape:cy="325.43793"
     inkscape:window-width="1920"
     inkscape:window-height="1017"
     inkscape:window-x="-8"
     inkscape:window-y="-8"
     inkscape:window-maximized="1"
     inkscape:current-layer="layer1">
    <sodipodi:guide
       position="131.58587,88.744675"
       orientation="0,-1"
       id="guide1"
       inkscape:locked="false" />
    <sodipodi:guide
       position="88.744675,256.00001"
       orientation="1,0"
       id="guide2"
       inkscape:locked="false" />
    <sodipodi:guide
       position="423.25533,225.13033"
       orientation="1,0"
       id="guide3"
       inkscape:locked="false" />
    <sodipodi:guide
       position="255.99999,423.25533"
       orientation="0,-1"
       id="guide4"
       inkscape:locked="false" />
    <sodipodi:guide
       position="255.99999,88.74469"
       orientation="1,0"
       id="guide5"
       inkscape:locked="false" />
    <sodipodi:guide
       position="256,492.97929"
       orientation="0,-1"
       id="guide6"
       inkscape:locked="false" />
    <sodipodi:guide
       position="146.74224,353.53137"
       orientation="0,-1"
       id="guide7"
       inkscape:locked="false" />
    <sodipodi:guide
       position="130.33861,214.08344"
       orientation="0,-1"
       id="guide9"
       inkscape:locked="false" />
  </sodipodi:namedview>
  <defs
     id="defs1" />
  <g
     inkscape:label="Layer 1"
     inkscape:groupmode="layer"
     id="layer1">
    <path
       id="path1"
       style="display:inline;fill:#010101;stroke-width:10.1715;stroke-linecap:round;paint-order:stroke fill markers"
       d="M 269.96094,19.478516 432.92969,413.35547 A 236.97929,236.97929 0 0 0 492.97852,256 236.97929,236.97929 0 0 0 269.96094,19.478516 Z m -28.16797,0.558593 A 236.97929,236.97929 0 0 0 19.021484,256 236.97929,236.97929 0 0 0 79.048828,413.33398 C 135.12667,274.73901 187.76905,150.27529 241.79297,20.037109 Z m 14.16797,32.169922 C 242.93173,83.55374 229.95612,114.69111 217,145.74414 h 77.66211 z m -15.02539,118.986329 15.10937,13.08984 15.06446,-13.08984 z m -35.6836,2.75586 c -11.74669,28.16453 -23.59358,56.73938 -35.42383,85.2539 l 66.8125,-58.05859 z m 101.1875,0.25976 -30.96484,26.90821 65.62109,56.85351 z m -50.36914,43.76758 -88.0332,76.49805 88.10156,39.63867 88.23242,-39.63476 z m -108.58008,95.16016 c -11.51192,27.92453 -23.20227,56.59077 -34.94726,85.48047 l 112.55664,-50.5625 z m 216.5918,0.38476 -76.91406,34.55079 112.07226,50.42382 z M 256.12891,362.01562 98.527344,432.8125 A 236.97929,236.97929 0 0 0 256,492.97852 236.97929,236.97929 0 0 0 413.47656,432.80859 Z" />
    <rect
       style="display:none;fill:#f9f9f9;fill-opacity:1;stroke-width:9.44882;stroke-linecap:round;paint-order:stroke fill markers"
       id="rect6"
       width="334.51065"
       height="334.51065"
       x="88.744675"
       y="88.744667"
       sodipodi:insensitive="true" />
    <path
       style="display:none;fill:none;fill-opacity:1;stroke:#ffffff;stroke-width:25.449;stroke-linecap:butt;stroke-linejoin:bevel;stroke-dasharray:none;stroke-opacity:1;paint-order:stroke fill markers"
       d="M 88.744675,423.25533 C 146.42981,280.53813 200.40031,153.13843 255.99999,19.02071 L 423.25533,423.25533 144.67522,297.91656 305.15318,158.46863 h -98.33693 l 160.95507,139.44793 z"
       id="path10"
       sodipodi:nodetypes="cccccccc" />
  </g>
</svg>
