<?xml version="1.0" encoding="UTF-8" standalone="no"?>
<!-- Created with Inkscape (http://www.inkscape.org/) -->

<svg
   width="64"
   height="64"
   viewBox="0 0 64 64"
   version="1.1"
   id="svg1"
   inkscape:version="1.3.1 (91b66b0783, 2023-11-16)"
   sodipodi:docname="Logo.svg"
   xmlns:inkscape="http://www.inkscape.org/namespaces/inkscape"
   xmlns:sodipodi="http://sodipodi.sourceforge.net/DTD/sodipodi-0.dtd"
   xmlns="http://www.w3.org/2000/svg"
   xmlns:svg="http://www.w3.org/2000/svg">
  <sodipodi:namedview
     id="namedview1"
     pagecolor="#ffffff"
     bordercolor="#000000"
     borderopacity="0.25"
     inkscape:showpageshadow="2"
     inkscape:pageopacity="0.0"
     inkscape:pagecheckerboard="0"
     inkscape:deskcolor="#d1d1d1"
     inkscape:document-units="px"
     showguides="true"
     inkscape:zoom="9.0708542"
     inkscape:cx="28.387624"
     inkscape:cy="34.891973"
     inkscape:window-width="1920"
     inkscape:window-height="1017"
     inkscape:window-x="-8"
     inkscape:window-y="-8"
     inkscape:window-maximized="1"
     inkscape:current-layer="layer1">
    <sodipodi:guide
       position="131.58587,88.744675"
       orientation="0,-1"
       id="guide1"
       inkscape:locked="false" />
    <sodipodi:guide
       position="88.744675,256.00001"
       orientation="1,0"
       id="guide2"
       inkscape:locked="false" />
    <sodipodi:guide
       position="423.25533,225.13033"
       orientation="1,0"
       id="guide3"
       inkscape:locked="false" />
    <sodipodi:guide
       position="255.99999,423.25533"
       orientation="0,-1"
       id="guide4"
       inkscape:locked="false" />
    <sodipodi:guide
       position="255.99999,88.74469"
       orientation="1,0"
       id="guide5"
       inkscape:locked="false" />
    <sodipodi:guide
       position="256,492.97929"
       orientation="0,-1"
       id="guide6"
       inkscape:locked="false" />
    <sodipodi:guide
       position="146.74224,353.53137"
       orientation="0,-1"
       id="guide7"
       inkscape:locked="false" />
    <sodipodi:guide
       position="130.33861,214.08344"
       orientation="0,-1"
       id="guide9"
       inkscape:locked="false" />
  </sodipodi:namedview>
  <defs
     id="defs1" />
  <g
     inkscape:label="Layer 1"
     inkscape:groupmode="layer"
     id="layer1">
    <path
       id="path1"
       style="display:inline;fill:#010101;stroke-width:1.37349;stroke-linecap:round;paint-order:stroke fill markers"
       d="M 33.885194,0.03085694 55.891407,53.217375 A 32.000103,32.000103 0 0 0 64,31.969143 32.000103,32.000103 0 0 0 33.885194,0.03085694 Z M 30.081578,0.10628029 A 32.000103,32.000103 0 0 0 0,31.969138 32.000103,32.000103 0 0 0 8.1056938,53.214469 C 15.678069,34.499528 22.786546,17.692777 30.081578,0.10628029 Z M 31.994726,4.4502938 C 30.235349,8.6831429 28.483208,12.887726 26.733699,17.08092 h 10.486976 z m -2.028928,16.0671182 2.040267,1.767567 2.034205,-1.767567 z m -4.818477,0.372136 c -1.586195,3.803148 -3.185919,7.661708 -4.783397,11.512117 l 9.021914,-7.839846 z m 13.663686,0.03509 -4.181285,3.633505 8.861035,7.677119 z m -6.801512,5.910083 -11.887419,10.329787 11.896648,5.352541 11.914319,-5.352013 z M 17.347563,39.68451 c -1.554493,3.770741 -3.133078,7.64164 -4.719045,11.542711 l 15.198901,-6.827622 z m 29.247114,0.05195 -10.385961,4.665508 15.133489,6.808896 z M 32.017408,46.284783 10.735941,55.844719 A 32.000103,32.000103 0 0 0 32,63.969143 32.000103,32.000103 0 0 0 53.264585,55.844196 Z" />
    <rect
       style="display:none;fill:#f9f9f9;fill-opacity:1;stroke-width:9.44882;stroke-linecap:round;paint-order:stroke fill markers"
       id="rect6"
       width="334.51065"
       height="334.51065"
       x="88.744675"
       y="88.744667"
       sodipodi:insensitive="true" />
    <path
       style="display:none;fill:none;fill-opacity:1;stroke:#ffffff;stroke-width:25.449;stroke-linecap:butt;stroke-linejoin:bevel;stroke-dasharray:none;stroke-opacity:1;paint-order:stroke fill markers"
       d="M 88.744675,423.25533 C 146.42981,280.53813 200.40031,153.13843 255.99999,19.02071 L 423.25533,423.25533 144.67522,297.91656 305.15318,158.46863 h -98.33693 l 160.95507,139.44793 z"
       id="path10"
       sodipodi:nodetypes="cccccccc" />
  </g>
</svg>
